<svg version="1.1" xmlns="http://www.w3.org/2000/svg" xmlns:xlink="http://www.w3.org/1999/xlink" width="2108" height="1524"><defs/><g><g transform="translate(-958,-550) scale(1,1)"><rect fill="#C0C0C0" stroke="none" x="1223" y="1551" width="115.20000000000005" height="15" opacity="0.2"/></g><g transform="translate(-958,-550) scale(1,1)"><rect fill="#C0C0C0" stroke="none" x="1223" y="1565" width="288" height="146" opacity="0.2"/></g><g transform="translate(-958,-550) scale(1,1)"><rect fill="#f8f897" stroke="none" x="1216" y="1559" width="288" height="145"/></g><g transform="translate(-958,-550) scale(1,1)"><path fill="none" stroke="#000000" d="M 1216 1559 L 1504 1559 L 1504 1704 L 1216 1704 L 1216 1559 Z Z" stroke-miterlimit="10"/></g><g transform="translate(-958,-550) scale(1,1)"><rect fill="#f8f897" stroke="none" x="1216" y="1544" width="115.20000000000005" height="15"/></g><g transform="translate(-958,-550) scale(1,1)"><path fill="none" stroke="#000000" d="M 1216 1544 L 1331.2 1544 L 1331.2 1559 L 1216 1559 L 1216 1544 Z Z" stroke-miterlimit="10"/></g><g transform="translate(-958,-550) scale(1,1)"><rect fill="#f8f897" stroke="none" x="1216" y="1558" width="288" height="146"/></g><g transform="translate(-958,-550) scale(1,1)"><path fill="none" stroke="#000000" d="M 1216 1558 L 1504 1558 L 1504 1704 L 1216 1704 L 1216 1558 Z Z" stroke-miterlimit="10"/></g><g transform="translate(-958,-550) scale(1,1)"><g><path fill="none" stroke="none"/><text fill="#000000" stroke="none" font-family="Arial" font-size="13px" font-style="normal" font-weight="bold" text-decoration="none" x="1294.63818359375" y="1577">Appli VS compagnon</text></g></g><g transform="translate(-958,-550) scale(1,1)"><rect fill="#C0C0C0" stroke="none" x="1927" y="599" width="115.20000000000005" height="15" opacity="0.2"/></g><g transform="translate(-958,-550) scale(1,1)"><rect fill="#C0C0C0" stroke="none" x="1927" y="613" width="288" height="146" opacity="0.2"/></g><g transform="translate(-958,-550) scale(1,1)"><rect fill="#a3ffa3" stroke="none" x="1920" y="607" width="288" height="145"/></g><g transform="translate(-958,-550) scale(1,1)"><path fill="none" stroke="#000000" d="M 1920 607 L 2208 607 L 2208 752 L 1920 752 L 1920 607 Z Z" stroke-miterlimit="10"/></g><g transform="translate(-958,-550) scale(1,1)"><rect fill="#a3ffa3" stroke="none" x="1920" y="592" width="115.20000000000005" height="15"/></g><g transform="translate(-958,-550) scale(1,1)"><path fill="none" stroke="#000000" d="M 1920 592 L 2035.2 592 L 2035.2 607 L 1920 607 L 1920 592 Z Z" stroke-miterlimit="10"/></g><g transform="translate(-958,-550) scale(1,1)"><rect fill="#a3ffa3" stroke="none" x="1920" y="606" width="288" height="146"/></g><g transform="translate(-958,-550) scale(1,1)"><path fill="none" stroke="#000000" d="M 1920 606 L 2208 606 L 2208 752 L 1920 752 L 1920 606 Z Z" stroke-miterlimit="10"/></g><g transform="translate(-958,-550) scale(1,1)"><g><path fill="none" stroke="none"/><text fill="#000000" stroke="none" font-family="Arial" font-size="13px" font-style="normal" font-weight="bold" text-decoration="none" x="2049.55908203125" y="625">Stub</text></g></g><g transform="translate(-958,-550) scale(1,1)"><rect fill="#C0C0C0" stroke="none" x="1223" y="1167" width="115.20000000000005" height="15" opacity="0.2"/></g><g transform="translate(-958,-550) scale(1,1)"><rect fill="#C0C0C0" stroke="none" x="1223" y="1181" width="288" height="146" opacity="0.2"/></g><g transform="translate(-958,-550) scale(1,1)"><rect fill="#a3ffa3" stroke="none" x="1216" y="1175" width="288" height="145"/></g><g transform="translate(-958,-550) scale(1,1)"><path fill="none" stroke="#000000" d="M 1216 1175 L 1504 1175 L 1504 1320 L 1216 1320 L 1216 1175 Z Z" stroke-miterlimit="10"/></g><g transform="translate(-958,-550) scale(1,1)"><rect fill="#a3ffa3" stroke="none" x="1216" y="1160" width="115.20000000000005" height="15"/></g><g transform="translate(-958,-550) scale(1,1)"><path fill="none" stroke="#000000" d="M 1216 1160 L 1331.2 1160 L 1331.2 1175 L 1216 1175 L 1216 1160 Z Z" stroke-miterlimit="10"/></g><g transform="translate(-958,-550) scale(1,1)"><rect fill="#a3ffa3" stroke="none" x="1216" y="1174" width="288" height="146"/></g><g transform="translate(-958,-550) scale(1,1)"><path fill="none" stroke="#000000" d="M 1216 1174 L 1504 1174 L 1504 1320 L 1216 1320 L 1216 1174 Z Z" stroke-miterlimit="10"/></g><g transform="translate(-958,-550) scale(1,1)"><g><path fill="none" stroke="none"/><text fill="#000000" stroke="none" font-family="Arial" font-size="13px" font-style="normal" font-weight="bold" text-decoration="none" x="1312.687744140625" y="1193">Data Collection</text></g></g><g transform="translate(-958,-550) scale(1,1)"><path fill="none" stroke="#000000" d="M 1360 1321 L 1360 1543" stroke-miterlimit="10" stroke-dasharray="3"/></g><g transform="translate(-958,-550) scale(1,1)"><path fill="none" stroke="#000000" d="M 1355.7904822439841 1532.837325142376 L 1360 1543 L 1364.2095177560159 1532.837325142376" stroke-miterlimit="10"/></g><g transform="translate(-958,-550) scale(1,1)"><g><path fill="none" stroke="none"/><text fill="#000000" stroke="none" font-family="Arial" font-size="13px" font-style="normal" font-weight="normal" text-decoration="none" x="1385.5" y="1430">+access</text></g></g><g transform="translate(-958,-550) scale(1,1)"><rect fill="#C0C0C0" stroke="none" x="2295" y="1167" width="115.19999999999982" height="15" opacity="0.2"/></g><g transform="translate(-958,-550) scale(1,1)"><rect fill="#C0C0C0" stroke="none" x="2295" y="1181" width="288" height="146" opacity="0.2"/></g><g transform="translate(-958,-550) scale(1,1)"><rect fill="#f87272" stroke="none" x="2288" y="1175" width="288" height="145"/></g><g transform="translate(-958,-550) scale(1,1)"><path fill="none" stroke="#000000" d="M 2288 1175 L 2576 1175 L 2576 1320 L 2288 1320 L 2288 1175 Z Z" stroke-miterlimit="10"/></g><g transform="translate(-958,-550) scale(1,1)"><rect fill="#f87272" stroke="none" x="2288" y="1160" width="115.19999999999982" height="15"/></g><g transform="translate(-958,-550) scale(1,1)"><path fill="none" stroke="#000000" d="M 2288 1160 L 2403.2 1160 L 2403.2 1175 L 2288 1175 L 2288 1160 Z Z" stroke-miterlimit="10"/></g><g transform="translate(-958,-550) scale(1,1)"><rect fill="#f87272" stroke="none" x="2288" y="1174" width="288" height="146"/></g><g transform="translate(-958,-550) scale(1,1)"><path fill="none" stroke="#000000" d="M 2288 1174 L 2576 1174 L 2576 1320 L 2288 1320 L 2288 1174 Z Z" stroke-miterlimit="10"/></g><g transform="translate(-958,-550) scale(1,1)"><g><path fill="none" stroke="none"/><text fill="#000000" stroke="none" font-family="Arial" font-size="13px" font-style="normal" font-weight="bold" text-decoration="none" x="2400.214111328125" y="1193">Utilisateur</text></g></g><g transform="translate(-958,-550) scale(1,1)"><rect fill="#C0C0C0" stroke="none" x="2495" y="1911" width="115.19999999999982" height="15" opacity="0.2"/></g><g transform="translate(-958,-550) scale(1,1)"><rect fill="#C0C0C0" stroke="none" x="2495" y="1925" width="288" height="146" opacity="0.2"/></g><g transform="translate(-958,-550) scale(1,1)"><rect fill="#f87272" stroke="none" x="2488" y="1919" width="288" height="145"/></g><g transform="translate(-958,-550) scale(1,1)"><path fill="none" stroke="#000000" d="M 2488 1919 L 2776 1919 L 2776 2064 L 2488 2064 L 2488 1919 Z Z" stroke-miterlimit="10"/></g><g transform="translate(-958,-550) scale(1,1)"><rect fill="#f87272" stroke="none" x="2488" y="1904" width="115.19999999999982" height="15"/></g><g transform="translate(-958,-550) scale(1,1)"><path fill="none" stroke="#000000" d="M 2488 1904 L 2603.2 1904 L 2603.2 1919 L 2488 1919 L 2488 1904 Z Z" stroke-miterlimit="10"/></g><g transform="translate(-958,-550) scale(1,1)"><rect fill="#f87272" stroke="none" x="2488" y="1918" width="288" height="146"/></g><g transform="translate(-958,-550) scale(1,1)"><path fill="none" stroke="#000000" d="M 2488 1918 L 2776 1918 L 2776 2064 L 2488 2064 L 2488 1918 Z Z" stroke-miterlimit="10"/></g><g transform="translate(-958,-550) scale(1,1)"><g><path fill="none" stroke="none"/><text fill="#000000" stroke="none" font-family="Arial" font-size="13px" font-style="normal" font-weight="bold" text-decoration="none" x="2529.056884765625" y="1937">Achievement and Steam Account</text></g></g><g transform="translate(-958,-550) scale(1,1)"><path fill="none" stroke="#000000" d="M 2487 1984 L 1947 1984 L 1492 1705" stroke-miterlimit="10" stroke-dasharray="3"/></g><g transform="translate(-958,-550) scale(1,1)"><path fill="none" stroke="#000000" d="M 1502.8640884852573 1706.7238275390823 L 1492 1705 L 1498.463140496855 1713.9010007818174" stroke-miterlimit="10"/></g><g transform="translate(-958,-550) scale(1,1)"><g><path fill="none" stroke="none"/><text fill="#000000" stroke="none" font-family="Arial" font-size="13px" font-style="normal" font-weight="normal" text-decoration="none" x="1916.5" y="2000">+merge</text></g></g><g transform="translate(-958,-550) scale(1,1)"><path fill="none" stroke="#000000" d="M 2632 1903 L 2632 1408 L 2528 1321" stroke-miterlimit="10" stroke-dasharray="3"/></g><g transform="translate(-958,-550) scale(1,1)"><path fill="none" stroke="#000000" d="M 2538.495852274962 1324.2919728161355 L 2528 1321 L 2533.0939120161866 1330.749464619729" stroke-miterlimit="10"/></g><g transform="translate(-958,-550) scale(1,1)"><g><path fill="none" stroke="none"/><text fill="#000000" stroke="none" font-family="Arial" font-size="13px" font-style="normal" font-weight="normal" text-decoration="none" x="2735.5" y="1586">+import</text></g></g><g transform="translate(-958,-550) scale(1,1)"><rect fill="#C0C0C0" stroke="none" x="1751" y="1551" width="115.20000000000005" height="15" opacity="0.2"/></g><g transform="translate(-958,-550) scale(1,1)"><rect fill="#C0C0C0" stroke="none" x="1751" y="1565" width="288" height="146" opacity="0.2"/></g><g transform="translate(-958,-550) scale(1,1)"><rect fill="#76c5ed" stroke="none" x="1744" y="1559" width="288" height="145"/></g><g transform="translate(-958,-550) scale(1,1)"><path fill="none" stroke="#000000" d="M 1744 1559 L 2032 1559 L 2032 1704 L 1744 1704 L 1744 1559 Z Z" stroke-miterlimit="10"/></g><g transform="translate(-958,-550) scale(1,1)"><rect fill="#76c5ed" stroke="none" x="1744" y="1544" width="115.20000000000005" height="15"/></g><g transform="translate(-958,-550) scale(1,1)"><path fill="none" stroke="#000000" d="M 1744 1544 L 1859.2 1544 L 1859.2 1559 L 1744 1559 L 1744 1544 Z Z" stroke-miterlimit="10"/></g><g transform="translate(-958,-550) scale(1,1)"><rect fill="#76c5ed" stroke="none" x="1744" y="1558" width="288" height="146"/></g><g transform="translate(-958,-550) scale(1,1)"><path fill="none" stroke="#000000" d="M 1744 1558 L 2032 1558 L 2032 1704 L 1744 1704 L 1744 1558 Z Z" stroke-miterlimit="10"/></g><g transform="translate(-958,-550) scale(1,1)"><g><path fill="none" stroke="none"/><text fill="#000000" stroke="none" font-family="Arial" font-size="13px" font-style="normal" font-weight="bold" text-decoration="none" x="1814.3037109375" y="1577">Bibliotheaue de classes</text></g></g><g transform="translate(-958,-550) scale(1,1)"><path fill="none" stroke="#000000" d="M 1743 1624 L 1505 1624" stroke-miterlimit="10" stroke-dasharray="3"/></g><g transform="translate(-958,-550) scale(1,1)"><path fill="none" stroke="#000000" d="M 1515.162674857624 1619.7904822439841 L 1505 1624 L 1515.162674857624 1628.2095177560159" stroke-miterlimit="10"/></g><g transform="translate(-958,-550) scale(1,1)"><g><path fill="none" stroke="none"/><text fill="#000000" stroke="none" font-family="Arial" font-size="13px" font-style="normal" font-weight="normal" text-decoration="none" x="1600.5" y="1643">+merge</text></g></g><g transform="translate(-958,-550) scale(1,1)"><path fill="none" stroke="#000000" d="M 1777 1543 L 1471 1321" stroke-miterlimit="10" stroke-dasharray="3"/></g><g transform="translate(-958,-550) scale(1,1)"><path fill="none" stroke="#000000" d="M 1481.6978361364645 1323.5605276794745 L 1471 1321 L 1476.7539459905443 1330.3750789616888" stroke-miterlimit="10"/></g><g transform="translate(-958,-550) scale(1,1)"><g><path fill="none" stroke="none"/><text fill="#000000" stroke="none" font-family="Arial" font-size="13px" font-style="normal" font-weight="normal" text-decoration="none" x="1637.220458984375" y="1410">+access</text></g></g><g transform="translate(-958,-550) scale(1,1)"><rect fill="#C0C0C0" stroke="none" x="2775" y="1167" width="115.19999999999982" height="15" opacity="0.2"/></g><g transform="translate(-958,-550) scale(1,1)"><rect fill="#C0C0C0" stroke="none" x="2775" y="1181" width="288" height="146" opacity="0.2"/></g><g transform="translate(-958,-550) scale(1,1)"><rect fill="#f87272" stroke="none" x="2768" y="1175" width="288" height="145"/></g><g transform="translate(-958,-550) scale(1,1)"><path fill="none" stroke="#000000" d="M 2768 1175 L 3056 1175 L 3056 1320 L 2768 1320 L 2768 1175 Z Z" stroke-miterlimit="10"/></g><g transform="translate(-958,-550) scale(1,1)"><rect fill="#f87272" stroke="none" x="2768" y="1160" width="115.19999999999982" height="15"/></g><g transform="translate(-958,-550) scale(1,1)"><path fill="none" stroke="#000000" d="M 2768 1160 L 2883.2 1160 L 2883.2 1175 L 2768 1175 L 2768 1160 Z Z" stroke-miterlimit="10"/></g><g transform="translate(-958,-550) scale(1,1)"><rect fill="#f87272" stroke="none" x="2768" y="1174" width="288" height="146"/></g><g transform="translate(-958,-550) scale(1,1)"><path fill="none" stroke="#000000" d="M 2768 1174 L 3056 1174 L 3056 1320 L 2768 1320 L 2768 1174 Z Z" stroke-miterlimit="10"/></g><g transform="translate(-958,-550) scale(1,1)"><g><path fill="none" stroke="none"/><text fill="#000000" stroke="none" font-family="Arial" font-size="13px" font-style="normal" font-weight="bold" text-decoration="none" x="2879.84912109375" y="1193">Steam API</text></g></g><g transform="translate(-958,-550) scale(1,1)"><path fill="none" stroke="#000000" d="M 2577 1240 L 2767 1240" stroke-miterlimit="10" stroke-dasharray="3"/></g><g transform="translate(-958,-550) scale(1,1)"><path fill="none" stroke="#000000" d="M 2756.837325142376 1244.2095177560159 L 2767 1240 L 2756.837325142376 1235.7904822439841" stroke-miterlimit="10"/></g><g transform="translate(-958,-550) scale(1,1)"><g><path fill="none" stroke="none"/><text fill="#000000" stroke="none" font-family="Arial" font-size="13px" font-style="normal" font-weight="normal" text-decoration="none" x="2653.5" y="1298">+access</text></g></g><g transform="translate(-958,-550) scale(1,1)"><rect fill="#C0C0C0" stroke="none" x="1503" y="599" width="115.20000000000005" height="15" opacity="0.2"/></g><g transform="translate(-958,-550) scale(1,1)"><rect fill="#C0C0C0" stroke="none" x="1503" y="613" width="288" height="146" opacity="0.2"/></g><g transform="translate(-958,-550) scale(1,1)"><rect fill="#a3ffa3" stroke="none" x="1496" y="607" width="288" height="145"/></g><g transform="translate(-958,-550) scale(1,1)"><path fill="none" stroke="#000000" d="M 1496 607 L 1784 607 L 1784 752 L 1496 752 L 1496 607 Z Z" stroke-miterlimit="10"/></g><g transform="translate(-958,-550) scale(1,1)"><rect fill="#a3ffa3" stroke="none" x="1496" y="592" width="115.20000000000005" height="15"/></g><g transform="translate(-958,-550) scale(1,1)"><path fill="none" stroke="#000000" d="M 1496 592 L 1611.2 592 L 1611.2 607 L 1496 607 L 1496 592 Z Z" stroke-miterlimit="10"/></g><g transform="translate(-958,-550) scale(1,1)"><rect fill="#a3ffa3" stroke="none" x="1496" y="606" width="288" height="146"/></g><g transform="translate(-958,-550) scale(1,1)"><path fill="none" stroke="#000000" d="M 1496 606 L 1784 606 L 1784 752 L 1496 752 L 1496 606 Z Z" stroke-miterlimit="10"/></g><g transform="translate(-958,-550) scale(1,1)"><g><path fill="none" stroke="none"/><text fill="#000000" stroke="none" font-family="Arial" font-size="13px" font-style="normal" font-weight="bold" text-decoration="none" x="1555.46826171875" y="625">Data Contract / Persistance</text></g></g><g transform="translate(-958,-550) scale(1,1)"><rect fill="#C0C0C0" stroke="none" x="1727" y="895" width="115.20000000000005" height="15" opacity="0.2"/></g><g transform="translate(-958,-550) scale(1,1)"><rect fill="#C0C0C0" stroke="none" x="1727" y="909" width="288" height="146" opacity="0.2"/></g><g transform="translate(-958,-550) scale(1,1)"><rect fill="#a3ffa3" stroke="none" x="1720" y="903" width="288" height="145"/></g><g transform="translate(-958,-550) scale(1,1)"><path fill="none" stroke="#000000" d="M 1720 903 L 2008 903 L 2008 1048 L 1720 1048 L 1720 903 Z Z" stroke-miterlimit="10"/></g><g transform="translate(-958,-550) scale(1,1)"><rect fill="#a3ffa3" stroke="none" x="1720" y="888" width="115.20000000000005" height="15"/></g><g transform="translate(-958,-550) scale(1,1)"><path fill="none" stroke="#000000" d="M 1720 888 L 1835.2 888 L 1835.2 903 L 1720 903 L 1720 888 Z Z" stroke-miterlimit="10"/></g><g transform="translate(-958,-550) scale(1,1)"><rect fill="#a3ffa3" stroke="none" x="1720" y="902" width="288" height="146"/></g><g transform="translate(-958,-550) scale(1,1)"><path fill="none" stroke="#000000" d="M 1720 902 L 2008 902 L 2008 1048 L 1720 1048 L 1720 902 Z Z" stroke-miterlimit="10"/></g><g transform="translate(-958,-550) scale(1,1)"><g><path fill="none" stroke="none"/><text fill="#000000" stroke="none" font-family="Arial" font-size="13px" font-style="normal" font-weight="bold" text-decoration="none" x="1837.27001953125" y="921">Manager</text></g></g><g transform="translate(-958,-550) scale(1,1)"><path fill="none" stroke="#000000" d="M 1505 1162 L 1719 1046" stroke-miterlimit="10" stroke-dasharray="3"/></g><g transform="translate(-958,-550) scale(1,1)"><path fill="none" stroke="#000000" d="M 1712.0715355777922 1054.543791942118 L 1719 1046 L 1708.0594626045286 1047.1422090431658" stroke-miterlimit="10"/></g><g transform="translate(-958,-550) scale(1,1)"><g><path fill="none" stroke="none"/><text fill="#000000" stroke="none" font-family="Arial" font-size="13px" font-style="normal" font-weight="normal" text-decoration="none" x="1626.5" y="1137">+Access</text></g></g><g transform="translate(-958,-550) scale(1,1)"><path fill="none" stroke="#000000" d="M 1919 887 L 2009 753" stroke-miterlimit="10" stroke-dasharray="3"/></g><g transform="translate(-958,-550) scale(1,1)"><path fill="none" stroke="#000000" d="M 2006.828223522147 763.7834774970898 L 2009 753 L 1999.8392520623238 759.0893921882534" stroke-miterlimit="10"/></g><g transform="translate(-958,-550) scale(1,1)"><g><path fill="none" stroke="none"/><text fill="#000000" stroke="none" font-family="Arial" font-size="13px" font-style="normal" font-weight="normal" text-decoration="none" x="1895.5" y="827">+import</text></g></g><g transform="translate(-958,-550) scale(1,1)"><path fill="none" stroke="#000000" d="M 1803 887 L 1701 753" stroke-miterlimit="10" stroke-dasharray="3"/></g><g transform="translate(-958,-550) scale(1,1)"><path fill="none" stroke="#000000" d="M 1710.5049143510155 758.5368405413069 L 1701 753 L 1703.8058518990936 763.6361268853071" stroke-miterlimit="10"/></g><g transform="translate(-958,-550) scale(1,1)"><g><path fill="none" stroke="none"/><text fill="#000000" stroke="none" font-family="Arial" font-size="13px" font-style="normal" font-weight="normal" text-decoration="none" x="1695.5" y="827">+import</text></g></g><g transform="translate(-958,-550) scale(1,1)"><rect fill="#C0C0C0" stroke="none" x="2295" y="895" width="115.19999999999982" height="15" opacity="0.2"/></g><g transform="translate(-958,-550) scale(1,1)"><rect fill="#C0C0C0" stroke="none" x="2295" y="909" width="288" height="146" opacity="0.2"/></g><g transform="translate(-958,-550) scale(1,1)"><rect fill="#f87272" stroke="none" x="2288" y="903" width="288" height="145"/></g><g transform="translate(-958,-550) scale(1,1)"><path fill="none" stroke="#000000" d="M 2288 903 L 2576 903 L 2576 1048 L 2288 1048 L 2288 903 Z Z" stroke-miterlimit="10"/></g><g transform="translate(-958,-550) scale(1,1)"><rect fill="#f87272" stroke="none" x="2288" y="888" width="115.19999999999982" height="15"/></g><g transform="translate(-958,-550) scale(1,1)"><path fill="none" stroke="#000000" d="M 2288 888 L 2403.2 888 L 2403.2 903 L 2288 903 L 2288 888 Z Z" stroke-miterlimit="10"/></g><g transform="translate(-958,-550) scale(1,1)"><rect fill="#f87272" stroke="none" x="2288" y="902" width="288" height="146"/></g><g transform="translate(-958,-550) scale(1,1)"><path fill="none" stroke="#000000" d="M 2288 902 L 2576 902 L 2576 1048 L 2288 1048 L 2288 902 Z Z" stroke-miterlimit="10"/></g><g transform="translate(-958,-550) scale(1,1)"><g><path fill="none" stroke="none"/><text fill="#000000" stroke="none" font-family="Arial" font-size="13px" font-style="normal" font-weight="bold" text-decoration="none" x="2397.6845703125" y="921">Partie Note</text></g></g><g transform="translate(-958,-550) scale(1,1)"><path fill="none" stroke="#000000" d="M 2432 1049 L 2432 1159" stroke-miterlimit="10" stroke-dasharray="3"/></g><g transform="translate(-958,-550) scale(1,1)"><path fill="none" stroke="#000000" d="M 2427.790482243984 1148.837325142376 L 2432 1159 L 2436.209517756016 1148.837325142376" stroke-miterlimit="10"/></g><g transform="translate(-958,-550) scale(1,1)"><g><path fill="none" stroke="none"/><text fill="#000000" stroke="none" font-family="Arial" font-size="13px" font-style="normal" font-weight="normal" text-decoration="none" x="2471.5" y="1088">+import</text></g></g><g transform="translate(-958,-550) scale(1,1)"><path fill="none" stroke="#000000" d="M 2287 1037 L 2064 1144 L 1505 1220" stroke-miterlimit="10" stroke-dasharray="3"/></g><g transform="translate(-958,-550) scale(1,1)"><path fill="none" stroke="#000000" d="M 1514.5029356539242 1214.4597640882923 L 1505 1220 L 1515.637128624611 1222.8020518595276" stroke-miterlimit="10"/></g><g transform="translate(-958,-550) scale(1,1)"><g><path fill="none" stroke="none"/><text fill="#000000" stroke="none" font-family="Arial" font-size="13px" font-style="normal" font-weight="normal" text-decoration="none" x="2043.5" y="1162">+merge</text></g></g><g transform="translate(-958,-550) scale(1,1)"><path fill="none" stroke="#000000" d="M 2009 968 L 2287 968" stroke-miterlimit="10" stroke-dasharray="3"/></g><g transform="translate(-958,-550) scale(1,1)"><path fill="none" stroke="#000000" d="M 2276.837325142376 972.209517756016 L 2287 968 L 2276.837325142376 963.790482243984" stroke-miterlimit="10"/></g><g transform="translate(-958,-550) scale(1,1)"><g><path fill="none" stroke="none"/><text fill="#000000" stroke="none" font-family="Arial" font-size="13px" font-style="normal" font-weight="normal" text-decoration="none" x="2126.5" y="958">+import</text></g></g><g transform="translate(-958,-550) scale(1,1)"><rect fill="#C0C0C0" stroke="none" x="2207" y="1551" width="115.19999999999982" height="15" opacity="0.2"/></g><g transform="translate(-958,-550) scale(1,1)"><rect fill="#C0C0C0" stroke="none" x="2207" y="1565" width="288" height="146" opacity="0.2"/></g><g transform="translate(-958,-550) scale(1,1)"><rect fill="#76c5ed" stroke="none" x="2200" y="1559" width="288" height="145"/></g><g transform="translate(-958,-550) scale(1,1)"><path fill="none" stroke="#000000" d="M 2200 1559 L 2488 1559 L 2488 1704 L 2200 1704 L 2200 1559 Z Z" stroke-miterlimit="10"/></g><g transform="translate(-958,-550) scale(1,1)"><rect fill="#76c5ed" stroke="none" x="2200" y="1544" width="115.19999999999982" height="15"/></g><g transform="translate(-958,-550) scale(1,1)"><path fill="none" stroke="#000000" d="M 2200 1544 L 2315.2 1544 L 2315.2 1559 L 2200 1559 L 2200 1544 Z Z" stroke-miterlimit="10"/></g><g transform="translate(-958,-550) scale(1,1)"><rect fill="#76c5ed" stroke="none" x="2200" y="1558" width="288" height="146"/></g><g transform="translate(-958,-550) scale(1,1)"><path fill="none" stroke="#000000" d="M 2200 1558 L 2488 1558 L 2488 1704 L 2200 1704 L 2200 1558 Z Z" stroke-miterlimit="10"/></g><g transform="translate(-958,-550) scale(1,1)"><g><path fill="none" stroke="none"/><text fill="#000000" stroke="none" font-family="Arial" font-size="13px" font-style="normal" font-weight="bold" text-decoration="none" x="2307.640625" y="1577">Test untaire</text></g></g><g transform="translate(-958,-550) scale(1,1)"><path fill="none" stroke="#000000" d="M 2199 1624 L 2033 1624" stroke-miterlimit="10" stroke-dasharray="3"/></g><g transform="translate(-958,-550) scale(1,1)"><path fill="none" stroke="#000000" d="M 2043.162674857624 1619.7904822439841 L 2033 1624 L 2043.162674857624 1628.2095177560159" stroke-miterlimit="10"/></g><g transform="translate(-958,-550) scale(1,1)"><g><path fill="none" stroke="none"/><text fill="#000000" stroke="none" font-family="Arial" font-size="13px" font-style="normal" font-weight="normal" text-decoration="none" x="2093.5" y="1644">+import</text></g></g><g transform="translate(-958,-550) scale(1,1)"><rect fill="#C0C0C0" stroke="none" x="1223" y="1911" width="115.20000000000005" height="15" opacity="0.2"/></g><g transform="translate(-958,-550) scale(1,1)"><rect fill="#C0C0C0" stroke="none" x="1223" y="1925" width="288" height="146" opacity="0.2"/></g><g transform="translate(-958,-550) scale(1,1)"><rect fill="#f7b97b" stroke="none" x="1216" y="1919" width="288" height="145"/></g><g transform="translate(-958,-550) scale(1,1)"><path fill="none" stroke="#000000" d="M 1216 1919 L 1504 1919 L 1504 2064 L 1216 2064 L 1216 1919 Z Z" stroke-miterlimit="10"/></g><g transform="translate(-958,-550) scale(1,1)"><rect fill="#f7b97b" stroke="none" x="1216" y="1904" width="115.20000000000005" height="15"/></g><g transform="translate(-958,-550) scale(1,1)"><path fill="none" stroke="#000000" d="M 1216 1904 L 1331.2 1904 L 1331.2 1919 L 1216 1919 L 1216 1904 Z Z" stroke-miterlimit="10"/></g><g transform="translate(-958,-550) scale(1,1)"><rect fill="#f7b97b" stroke="none" x="1216" y="1918" width="288" height="146"/></g><g transform="translate(-958,-550) scale(1,1)"><path fill="none" stroke="#000000" d="M 1216 1918 L 1504 1918 L 1504 2064 L 1216 2064 L 1216 1918 Z Z" stroke-miterlimit="10"/></g><g transform="translate(-958,-550) scale(1,1)"><g><path fill="none" stroke="none"/><text fill="#000000" stroke="none" font-family="Arial" font-size="13px" font-style="normal" font-weight="bold" text-decoration="none" x="1329.534423828125" y="1937">Vues VSC</text></g></g><g transform="translate(-958,-550) scale(1,1)"><path fill="none" stroke="#000000" d="M 1360 1903 L 1360 1705" stroke-miterlimit="10" stroke-dasharray="3"/></g><g transform="translate(-958,-550) scale(1,1)"><path fill="none" stroke="#000000" d="M 1364.2095177560159 1715.162674857624 L 1360 1705 L 1355.7904822439841 1715.162674857624" stroke-miterlimit="10"/></g><g transform="translate(-958,-550) scale(1,1)"><g><path fill="none" stroke="none"/><text fill="#000000" stroke="none" font-family="Arial" font-size="13px" font-style="normal" font-weight="normal" text-decoration="none" x="1390.5" y="1809">+use</text></g></g><g transform="translate(-958,-550) scale(1,1)"><path fill="none" stroke="#000000" d="M 1505 1240 L 2287 1240" stroke-miterlimit="10" stroke-dasharray="3"/></g><g transform="translate(-958,-550) scale(1,1)"><path fill="none" stroke="#000000" d="M 2276.837325142376 1244.2095177560159 L 2287 1240 L 2276.837325142376 1235.7904822439841" stroke-miterlimit="10"/></g><g transform="translate(-958,-550) scale(1,1)"><g><path fill="none" stroke="none"/><text fill="#000000" stroke="none" font-family="Arial" font-size="13px" font-style="normal" font-weight="normal" text-decoration="none" x="1886.5" y="1265">+access</text></g></g><g transform="translate(-958,-550) scale(1,1)"><path fill="none" stroke="#000000" d="M 2317 1321 L 2003 1543" stroke-miterlimit="10" stroke-dasharray="3"/></g><g transform="translate(-958,-550) scale(1,1)"><path fill="none" stroke="#000000" d="M 2008.8680459338727 1533.695912891747 L 2003 1543 L 2013.7283181591515 1540.5703519851595" stroke-miterlimit="10"/></g><g transform="translate(-958,-550) scale(1,1)"><g><path fill="none" stroke="none"/><text fill="#000000" stroke="none" font-family="Arial" font-size="13px" font-style="normal" font-weight="normal" text-decoration="none" x="2190.5" y="1443">+import</text></g></g><g transform="translate(-958,-550) scale(1,1)"><path fill="#a3ffa3" stroke="none" d="M 968 600 C 968 577.908608 985.908608 560 1008 560 C 1030.091392 560 1048 577.908608 1048 600 C 1048 622.091392 1030.091392 640 1008 640 C 985.908608 640 968 622.091392 968 600 Z"/></g><g transform="translate(-958,-550) scale(1,1)"><path fill="none" stroke="#000000" d="M 968 600 C 968 577.908608 985.908608 560 1008 560 C 1030.091392 560 1048 577.908608 1048 600 C 1048 622.091392 1030.091392 640 1008 640 C 985.908608 640 968 622.091392 968 600 Z" stroke-miterlimit="10"/></g><g transform="translate(-958,-550) scale(1,1)"><path fill="#76c5ed" stroke="none" d="M 968 792 C 968 769.908608 985.908608 752 1008 752 C 1030.091392 752 1048 769.908608 1048 792 C 1048 814.091392 1030.091392 832 1008 832 C 985.908608 832 968 814.091392 968 792 Z"/></g><g transform="translate(-958,-550) scale(1,1)"><path fill="none" stroke="#000000" d="M 968 792 C 968 769.908608 985.908608 752 1008 752 C 1030.091392 752 1048 769.908608 1048 792 C 1048 814.091392 1030.091392 832 1008 832 C 985.908608 832 968 814.091392 968 792 Z" stroke-miterlimit="10"/></g><g transform="translate(-958,-550) scale(1,1)"><path fill="#f87272" stroke="none" d="M 968 696 C 968 673.908608 985.908608 656 1008 656 C 1030.091392 656 1048 673.908608 1048 696 C 1048 718.091392 1030.091392 736 1008 736 C 985.908608 736 968 718.091392 968 696 Z"/></g><g transform="translate(-958,-550) scale(1,1)"><path fill="none" stroke="#000000" d="M 968 696 C 968 673.908608 985.908608 656 1008 656 C 1030.091392 656 1048 673.908608 1048 696 C 1048 718.091392 1030.091392 736 1008 736 C 985.908608 736 968 718.091392 968 696 Z" stroke-miterlimit="10"/></g><g transform="translate(-958,-550) scale(1,1)"><path fill="#f7b97b" stroke="none" d="M 968 888 C 968 865.908608 985.908608 848 1008 848 C 1030.091392 848 1048 865.908608 1048 888 C 1048 910.091392 1030.091392 928 1008 928 C 985.908608 928 968 910.091392 968 888 Z"/></g><g transform="translate(-958,-550) scale(1,1)"><path fill="none" stroke="#000000" d="M 968 888 C 968 865.908608 985.908608 848 1008 848 C 1030.091392 848 1048 865.908608 1048 888 C 1048 910.091392 1030.091392 928 1008 928 C 985.908608 928 968 910.091392 968 888 Z" stroke-miterlimit="10"/></g><g transform="translate(-958,-550) scale(1,1)"><path fill="#f8f897" stroke="none" d="M 968 984 C 968 961.908608 985.908608 944 1008 944 C 1030.091392 944 1048 961.908608 1048 984 C 1048 1006.091392 1030.091392 1024 1008 1024 C 985.908608 1024 968 1006.091392 968 984 Z"/></g><g transform="translate(-958,-550) scale(1,1)"><path fill="none" stroke="#000000" d="M 968 984 C 968 961.908608 985.908608 944 1008 944 C 1030.091392 944 1048 961.908608 1048 984 C 1048 1006.091392 1030.091392 1024 1008 1024 C 985.908608 1024 968 1006.091392 968 984 Z" stroke-miterlimit="10"/></g><g transform="translate(-958,-550) scale(1,1)"><g><path fill="none" stroke="none"/><text fill="#000000" stroke="none" font-family="Arial" font-size="16px" font-style="normal" font-weight="normal" text-decoration="none" x="1061" y="601">Partie Collecte de</text><text fill="#000000" stroke="none" font-family="Arial" font-size="16px" font-style="normal" font-weight="normal" text-decoration="none" x="1061" y="617">donnees</text></g></g><g transform="translate(-958,-550) scale(1,1)"><g><path fill="none" stroke="none"/><text fill="#000000" stroke="none" font-family="Arial" font-size="16px" font-style="normal" font-weight="normal" text-decoration="none" x="1061" y="697">Partie Utilisateur relie via</text><text fill="#000000" stroke="none" font-family="Arial" font-size="16px" font-style="normal" font-weight="normal" text-decoration="none" x="1061" y="713">Steam</text></g></g><g transform="translate(-958,-550) scale(1,1)"><g><path fill="none" stroke="none"/><text fill="#000000" stroke="none" font-family="Arial" font-size="16px" font-style="normal" font-weight="normal" text-decoration="none" x="1061" y="786">Partie bibliothèque de classes et</text><text fill="#000000" stroke="none" font-family="Arial" font-size="16px" font-style="normal" font-weight="normal" text-decoration="none" x="1061" y="802">méthodes C#</text></g></g><g transform="translate(-958,-550) scale(1,1)"><g><path fill="none" stroke="none"/><text fill="#000000" stroke="none" font-family="Arial" font-size="16px" font-style="normal" font-weight="normal" text-decoration="none" x="1061" y="889">Partie visuelle xaml</text></g></g><g transform="translate(-958,-550) scale(1,1)"><g><path fill="none" stroke="none"/><text fill="#000000" stroke="none" font-family="Arial" font-size="16px" font-style="normal" font-weight="normal" text-decoration="none" x="1061" y="985">Application principale</text></g></g></g></svg>