<svg version="1.1" xmlns="http://www.w3.org/2000/svg" xmlns:xlink="http://www.w3.org/1999/xlink" width="1120.314453125" height="586"><defs/><g><g transform="translate(2,-30) scale(1,1)"><rect fill="#C0C0C0" stroke="none" x="15" y="47" width="82.57177734375" height="39" opacity="0.2"/></g><g transform="translate(2,-30) scale(1,1)"><rect fill="#ffffff" stroke="none" x="8" y="40" width="82.57177734375" height="39"/></g><g transform="translate(2,-30) scale(1,1)"><path fill="none" stroke="#000000" d="M 8 40 L 90.57177734375 40 L 90.57177734375 79 L 8 79 L 8 40 Z Z" stroke-miterlimit="10"/></g><g transform="translate(2,-30) scale(1,1)"><g><path fill="none" stroke="none"/><text fill="#000000" stroke="none" font-family="Arial" font-size="13px" font-style="normal" font-weight="bold" text-decoration="none" x="17.5" y="58">Utilisateur</text></g></g><g transform="translate(2,-30) scale(1,1)"><path fill="none" stroke="#000000" d="M 50.5 80 L 50.5 598" stroke-miterlimit="10" stroke-dasharray="3"/></g><g transform="translate(2,-30) scale(1,1)"><rect fill="#C0C0C0" stroke="none" x="399" y="47" width="89.7763671875" height="39" opacity="0.2"/></g><g transform="translate(2,-30) scale(1,1)"><rect fill="#ffffff" stroke="none" x="392" y="40" width="89.7763671875" height="39"/></g><g transform="translate(2,-30) scale(1,1)"><path fill="none" stroke="#000000" d="M 392 40 L 481.7763671875 40 L 481.7763671875 79 L 392 79 L 392 40 Z Z" stroke-miterlimit="10"/></g><g transform="translate(2,-30) scale(1,1)"><g><path fill="none" stroke="none"/><text fill="#000000" stroke="none" font-family="Arial" font-size="13px" font-style="normal" font-weight="bold" text-decoration="none" x="401.5" y="58">Application</text></g></g><g transform="translate(2,-30) scale(1,1)"><path fill="none" stroke="#000000" d="M 437.5 80 L 437.5 606" stroke-miterlimit="10" stroke-dasharray="3"/></g><g transform="translate(2,-30) scale(1,1)"><rect fill="#C0C0C0" stroke="none" x="855" y="47" width="71.736328125" height="39" opacity="0.2"/></g><g transform="translate(2,-30) scale(1,1)"><rect fill="#ffffff" stroke="none" x="848" y="40" width="71.736328125" height="39"/></g><g transform="translate(2,-30) scale(1,1)"><path fill="none" stroke="#000000" d="M 848 40 L 919.736328125 40 L 919.736328125 79 L 848 79 L 848 40 Z Z" stroke-miterlimit="10"/></g><g transform="translate(2,-30) scale(1,1)"><g><path fill="none" stroke="none"/><text fill="#000000" stroke="none" font-family="Arial" font-size="13px" font-style="normal" font-weight="bold" text-decoration="none" x="869.424072265625" y="58">Note</text></g></g><g transform="translate(2,-30) scale(1,1)"><path fill="none" stroke="#000000" d="M 884.5 80 L 884.5 592" stroke-miterlimit="10" stroke-dasharray="3"/></g><g transform="translate(2,-30) scale(1,1)"><rect fill="#C0C0C0" stroke="none" x="679" y="47" width="128.79541015625" height="39" opacity="0.2"/></g><g transform="translate(2,-30) scale(1,1)"><rect fill="#ffffff" stroke="none" x="672" y="40" width="128.79541015625" height="39"/></g><g transform="translate(2,-30) scale(1,1)"><path fill="none" stroke="#000000" d="M 672 40 L 800.79541015625 40 L 800.79541015625 79 L 672 79 L 672 40 Z Z" stroke-miterlimit="10"/></g><g transform="translate(2,-30) scale(1,1)"><g><path fill="none" stroke="none"/><text fill="#000000" stroke="none" font-family="Arial" font-size="13px" font-style="normal" font-weight="bold" text-decoration="none" x="681.5" y="58">Connexion Steam</text></g></g><g transform="translate(2,-30) scale(1,1)"><path fill="none" stroke="#000000" d="M 737.5 80 L 737.5 606" stroke-miterlimit="10" stroke-dasharray="3"/></g><g transform="translate(2,-30) scale(1,1)"><rect fill="#C0C0C0" stroke="none" x="967" y="47" width="148.314453125" height="39" opacity="0.2"/></g><g transform="translate(2,-30) scale(1,1)"><rect fill="#ffffff" stroke="none" x="960" y="40" width="148.314453125" height="39"/></g><g transform="translate(2,-30) scale(1,1)"><path fill="none" stroke="#000000" d="M 960 40 L 1108.314453125 40 L 1108.314453125 79 L 960 79 L 960 40 Z Z" stroke-miterlimit="10"/></g><g transform="translate(2,-30) scale(1,1)"><g><path fill="none" stroke="none"/><text fill="#000000" stroke="none" font-family="Arial" font-size="13px" font-style="normal" font-weight="bold" text-decoration="none" x="969.5" y="58">Donnees Utilisateurs</text></g></g><g transform="translate(2,-30) scale(1,1)"><path fill="none" stroke="#000000" d="M 1035.5 80 L 1035.5 592" stroke-miterlimit="10" stroke-dasharray="3"/></g><g transform="translate(2,-30) scale(1,1)"><path fill="none" stroke="#000000" d="M 437 88 L 56 88" stroke-miterlimit="10"/></g><g transform="translate(2,-30) scale(1,1)"><path fill="#000000" stroke="none" d="M 66.16267485762415 83.79048224398402 L 56 88 L 66.16267485762415 92.20951775601598"/></g><g transform="translate(2,-30) scale(1,1)"><path fill="none" stroke="#000000" d="M 66.16267485762415 83.79048224398402 L 56 88 L 66.16267485762415 92.20951775601598 L 66.16267485762415 83.79048224398402" stroke-miterlimit="10"/></g><g transform="translate(2,-30) scale(1,1)"><g><path fill="none" stroke="none"/><text fill="#000000" stroke="none" font-family="Arial" font-size="13px" font-style="normal" font-weight="normal" text-decoration="none" x="198.5" y="83">1 : rend une appli</text></g></g><g transform="translate(2,-30) scale(1,1)"><rect fill="#ffffff" stroke="none" x="43" y="88" width="13" height="496"/></g><g transform="translate(2,-30) scale(1,1)"><path fill="none" stroke="#000000" d="M 43 88 L 56 88 L 56 584 L 43 584 L 43 88 Z Z" stroke-miterlimit="10"/></g><g transform="translate(2,-30) scale(1,1)"><path fill="none" stroke="#000000" d="M 56 178 L 430 178" stroke-miterlimit="10"/></g><g transform="translate(2,-30) scale(1,1)"><path fill="#000000" stroke="none" d="M 419.83732514237585 182.209517756016 L 430 178 L 419.83732514237585 173.790482243984"/></g><g transform="translate(2,-30) scale(1,1)"><path fill="none" stroke="#000000" d="M 419.83732514237585 182.209517756016 L 430 178 L 419.83732514237585 173.790482243984 L 419.83732514237585 182.209517756016" stroke-miterlimit="10"/></g><g transform="translate(2,-30) scale(1,1)"><g><path fill="none" stroke="none"/><text fill="#000000" stroke="none" font-family="Arial" font-size="13px" font-style="normal" font-weight="normal" text-decoration="none" x="138.5" y="173">2 : Essaye de se connecter a Steam</text></g></g><g transform="translate(2,-30) scale(1,1)"><rect fill="#ffffff" stroke="none" x="430" y="178" width="13" height="102"/></g><g transform="translate(2,-30) scale(1,1)"><path fill="none" stroke="#000000" d="M 430 178 L 443 178 L 443 280 L 430 280 L 430 178 Z Z" stroke-miterlimit="10"/></g><g transform="translate(2,-30) scale(1,1)"><path fill="none" stroke="#000000" d="M 443 186 L 730 186" stroke-miterlimit="10"/></g><g transform="translate(2,-30) scale(1,1)"><path fill="none" stroke="#000000" d="M 719.8373251423759 190.209517756016 L 730 186 L 719.8373251423758 181.790482243984" stroke-miterlimit="10"/></g><g transform="translate(2,-30) scale(1,1)"><g><path fill="none" stroke="none"/><text fill="#000000" stroke="none" font-family="Arial" font-size="13px" font-style="normal" font-weight="normal" text-decoration="none" x="455.5" y="181">3 : Connecte l'utilisateur à son compte Steam</text></g></g><g transform="translate(2,-30) scale(1,1)"><rect fill="#ffffff" stroke="none" x="730" y="186" width="13" height="62"/></g><g transform="translate(2,-30) scale(1,1)"><path fill="none" stroke="#000000" d="M 730 186 L 743 186 L 743 248 L 730 248 L 730 186 Z Z" stroke-miterlimit="10"/></g><g transform="translate(2,-30) scale(1,1)"><path fill="none" stroke="#000000" d="M 443 272 L 1028 272" stroke-miterlimit="10"/></g><g transform="translate(2,-30) scale(1,1)"><path fill="#000000" stroke="none" d="M 1017.8373251423759 276.209517756016 L 1028 272 L 1017.8373251423758 267.790482243984"/></g><g transform="translate(2,-30) scale(1,1)"><path fill="none" stroke="#000000" d="M 1017.8373251423759 276.209517756016 L 1028 272 L 1017.8373251423758 267.790482243984 L 1017.8373251423759 276.209517756016" stroke-miterlimit="10"/></g><g transform="translate(2,-30) scale(1,1)"><g><path fill="none" stroke="none"/><text fill="#000000" stroke="none" font-family="Arial" font-size="13px" font-style="normal" font-weight="normal" text-decoration="none" x="618.5" y="267">4 : Met à jour les données de l'utilisateur</text></g></g><g transform="translate(2,-30) scale(1,1)"><rect fill="#ffffff" stroke="none" x="1028" y="272" width="13" height="28"/></g><g transform="translate(2,-30) scale(1,1)"><path fill="none" stroke="#000000" d="M 1028 272 L 1041 272 L 1041 300 L 1028 300 L 1028 272 Z Z" stroke-miterlimit="10"/></g><g transform="translate(2,-30) scale(1,1)"><path fill="none" stroke="#000000" d="M 437 280 L 56 280" stroke-miterlimit="10" stroke-dasharray="3"/></g><g transform="translate(2,-30) scale(1,1)"><path fill="none" stroke="#000000" d="M 66.16267485762415 275.790482243984 L 56 280 L 66.16267485762415 284.209517756016" stroke-miterlimit="10"/></g><g transform="translate(2,-30) scale(1,1)"><g><path fill="none" stroke="none"/><text fill="#000000" stroke="none" font-family="Arial" font-size="13px" font-style="normal" font-weight="normal" text-decoration="none" x="126.5" y="274">5 : Autorise utilisateur à laisser des notes</text></g></g><g transform="translate(2,-30) scale(1,1)"><path fill="none" stroke="#000000" d="M 56 328 L 430 328" stroke-miterlimit="10"/></g><g transform="translate(2,-30) scale(1,1)"><path fill="#000000" stroke="none" d="M 419.83732514237585 332.209517756016 L 430 328 L 419.83732514237585 323.790482243984"/></g><g transform="translate(2,-30) scale(1,1)"><path fill="none" stroke="#000000" d="M 419.83732514237585 332.209517756016 L 430 328 L 419.83732514237585 323.790482243984 L 419.83732514237585 332.209517756016" stroke-miterlimit="10"/></g><g transform="translate(2,-30) scale(1,1)"><g><path fill="none" stroke="none"/><text fill="#000000" stroke="none" font-family="Arial" font-size="13px" font-style="normal" font-weight="normal" text-decoration="none" x="155.5" y="323">6 : Essaye de laisser une note</text></g></g><g transform="translate(2,-30) scale(1,1)"><rect fill="#ffffff" stroke="none" x="430" y="328" width="13" height="120"/></g><g transform="translate(2,-30) scale(1,1)"><path fill="none" stroke="#000000" d="M 430 328 L 443 328 L 443 448 L 430 448 L 430 328 Z Z" stroke-miterlimit="10"/></g><g transform="translate(2,-30) scale(1,1)"><path fill="none" stroke="#000000" d="M 443 354 L 877 354" stroke-miterlimit="10"/></g><g transform="translate(2,-30) scale(1,1)"><path fill="#000000" stroke="none" d="M 866.8373251423759 358.209517756016 L 877 354 L 866.8373251423758 349.790482243984"/></g><g transform="translate(2,-30) scale(1,1)"><path fill="none" stroke="#000000" d="M 866.8373251423759 358.209517756016 L 877 354 L 866.8373251423758 349.790482243984 L 866.8373251423759 358.209517756016" stroke-miterlimit="10"/></g><g transform="translate(2,-30) scale(1,1)"><g><path fill="none" stroke="none"/><text fill="#000000" stroke="none" font-family="Arial" font-size="13px" font-style="normal" font-weight="normal" text-decoration="none" x="518.5" y="349">7 : Laisse la note de utilisateur a element desiree</text></g></g><g transform="translate(2,-30) scale(1,1)"><rect fill="#ffffff" stroke="none" x="877" y="354" width="13" height="46"/></g><g transform="translate(2,-30) scale(1,1)"><path fill="none" stroke="#000000" d="M 877 354 L 890 354 L 890 400 L 877 400 L 877 354 Z Z" stroke-miterlimit="10"/></g><g transform="translate(2,-30) scale(1,1)"><path fill="none" stroke="#000000" d="M 884 400 L 443 400" stroke-miterlimit="10" stroke-dasharray="3"/></g><g transform="translate(2,-30) scale(1,1)"><path fill="none" stroke="#000000" d="M 453.16267485762415 395.790482243984 L 443 400 L 453.16267485762415 404.209517756016" stroke-miterlimit="10"/></g><g transform="translate(2,-30) scale(1,1)"><g><path fill="none" stroke="none"/><text fill="#000000" stroke="none" font-family="Arial" font-size="13px" font-style="normal" font-weight="normal" text-decoration="none" x="602.5" y="394">8 : Note bien laissée</text></g></g><g transform="translate(2,-30) scale(1,1)"><path fill="none" stroke="#000000" d="M 443 432 L 1028 432" stroke-miterlimit="10"/></g><g transform="translate(2,-30) scale(1,1)"><path fill="#000000" stroke="none" d="M 1017.8373251423759 436.209517756016 L 1028 432 L 1017.8373251423758 427.790482243984"/></g><g transform="translate(2,-30) scale(1,1)"><path fill="none" stroke="#000000" d="M 1017.8373251423759 436.209517756016 L 1028 432 L 1017.8373251423758 427.790482243984 L 1017.8373251423759 436.209517756016" stroke-miterlimit="10"/></g><g transform="translate(2,-30) scale(1,1)"><g><path fill="none" stroke="none"/><text fill="#000000" stroke="none" font-family="Arial" font-size="13px" font-style="normal" font-weight="normal" text-decoration="none" x="619.114990234375" y="427">9 : Met a jour les donnees de l'utilisateur</text></g></g><g transform="translate(2,-30) scale(1,1)"><rect fill="#ffffff" stroke="none" x="1028" y="432" width="13" height="28"/></g><g transform="translate(2,-30) scale(1,1)"><path fill="none" stroke="#000000" d="M 1028 432 L 1041 432 L 1041 460 L 1028 460 L 1028 432 Z Z" stroke-miterlimit="10"/></g><g transform="translate(2,-30) scale(1,1)"><path fill="none" stroke="#000000" d="M 437 448 L 56 448" stroke-miterlimit="10" stroke-dasharray="3"/></g><g transform="translate(2,-30) scale(1,1)"><path fill="none" stroke="#000000" d="M 66.16267485762415 443.790482243984 L 56 448 L 66.16267485762415 452.209517756016" stroke-miterlimit="10"/></g><g transform="translate(2,-30) scale(1,1)"><g><path fill="none" stroke="none"/><text fill="#000000" stroke="none" font-family="Arial" font-size="13px" font-style="normal" font-weight="normal" text-decoration="none" x="93.5" y="442">10 : Informe l'utilisateur que la note a bien été laisser</text></g></g><g transform="translate(2,-30) scale(1,1)"><path fill="none" stroke="#000000" d="M 56 480 L 430 480" stroke-miterlimit="10"/></g><g transform="translate(2,-30) scale(1,1)"><path fill="#000000" stroke="none" d="M 419.83732514237585 484.209517756016 L 430 480 L 419.83732514237585 475.790482243984"/></g><g transform="translate(2,-30) scale(1,1)"><path fill="none" stroke="#000000" d="M 419.83732514237585 484.209517756016 L 430 480 L 419.83732514237585 475.790482243984 L 419.83732514237585 484.209517756016" stroke-miterlimit="10"/></g><g transform="translate(2,-30) scale(1,1)"><g><path fill="none" stroke="none"/><text fill="#000000" stroke="none" font-family="Arial" font-size="13px" font-style="normal" font-weight="normal" text-decoration="none" x="138.982421875" y="475">11 : Demande à consulter ses notes</text></g></g><g transform="translate(2,-30) scale(1,1)"><rect fill="#ffffff" stroke="none" x="430" y="480" width="13" height="80"/></g><g transform="translate(2,-30) scale(1,1)"><path fill="none" stroke="#000000" d="M 430 480 L 443 480 L 443 560 L 430 560 L 430 480 Z Z" stroke-miterlimit="10"/></g><g transform="translate(2,-30) scale(1,1)"><path fill="none" stroke="#000000" d="M 443 488 L 1028 488" stroke-miterlimit="10"/></g><g transform="translate(2,-30) scale(1,1)"><path fill="#000000" stroke="none" d="M 1017.8373251423759 492.209517756016 L 1028 488 L 1017.8373251423758 483.790482243984"/></g><g transform="translate(2,-30) scale(1,1)"><path fill="none" stroke="#000000" d="M 1017.8373251423759 492.209517756016 L 1028 488 L 1017.8373251423758 483.790482243984 L 1017.8373251423759 492.209517756016" stroke-miterlimit="10"/></g><g transform="translate(2,-30) scale(1,1)"><g><path fill="none" stroke="none"/><text fill="#000000" stroke="none" font-family="Arial" font-size="13px" font-style="normal" font-weight="normal" text-decoration="none" x="605.75" y="483">12 : Cherche les notes laisser par l'utilisateur</text></g></g><g transform="translate(2,-30) scale(1,1)"><rect fill="#ffffff" stroke="none" x="1028" y="488" width="13" height="48"/></g><g transform="translate(2,-30) scale(1,1)"><path fill="none" stroke="#000000" d="M 1028 488 L 1041 488 L 1041 536 L 1028 536 L 1028 488 Z Z" stroke-miterlimit="10"/></g><g transform="translate(2,-30) scale(1,1)"><path fill="none" stroke="#000000" d="M 1035 536 L 443 536" stroke-miterlimit="10" stroke-dasharray="3"/></g><g transform="translate(2,-30) scale(1,1)"><path fill="none" stroke="#000000" d="M 453.16267485762415 531.790482243984 L 443 536 L 453.16267485762415 540.209517756016" stroke-miterlimit="10"/></g><g transform="translate(2,-30) scale(1,1)"><g><path fill="none" stroke="none"/><text fill="#000000" stroke="none" font-family="Arial" font-size="13px" font-style="normal" font-weight="normal" text-decoration="none" x="609.75" y="530">13 : Renvoie les notes laisser par l'utilisateur</text></g></g><g transform="translate(2,-30) scale(1,1)"><path fill="none" stroke="#000000" d="M 437 560 L 56 560" stroke-miterlimit="10" stroke-dasharray="3"/></g><g transform="translate(2,-30) scale(1,1)"><path fill="none" stroke="#000000" d="M 66.16267485762415 555.790482243984 L 56 560 L 66.16267485762415 564.209517756016" stroke-miterlimit="10"/></g><g transform="translate(2,-30) scale(1,1)"><g><path fill="none" stroke="none"/><text fill="#000000" stroke="none" font-family="Arial" font-size="13px" font-style="normal" font-weight="normal" text-decoration="none" x="76.5" y="554">14 : Affiche les notes laissées par l'utilisateurs dans la vue</text></g></g></g></svg>