<svg version="1.1" xmlns="http://www.w3.org/2000/svg" xmlns:xlink="http://www.w3.org/1999/xlink" width="1894.17724609375" height="1428"><defs/><g><g transform="translate(-102,-54) scale(1,1)"><rect fill="#C0C0C0" stroke="none" x="207" y="71" width="1688" height="1408" opacity="0.2"/></g><g transform="translate(-102,-54) scale(1,1)"><rect fill="#ffffff" stroke="none" x="200" y="64" width="1688" height="1408"/></g><g transform="translate(-102,-54) scale(1,1)"><path fill="none" stroke="#000000" d="M 200 64 L 1888 64 L 1888 1472 L 200 1472 L 200 64 Z Z" stroke-miterlimit="10"/></g><g transform="translate(-102,-54) scale(1,1)"><g><path fill="none" stroke="none"/><text fill="#000000" stroke="none" font-family="Arial" font-size="13px" font-style="normal" font-weight="bold" text-decoration="none" x="947.1982421875" y="82">Vampire Survivors Compagnon</text></g></g><g transform="translate(-102,-54) scale(1,1)"><path fill="#ffffff" stroke="none" d="M 139.60661594460228 865.6800000000001 C 139.60661594460228 860.8861679360001 143.49245826954774 857 148.285888671875 857 C 153.07931907420226 857 156.96516139914772 860.8861679360001 156.96516139914772 865.6800000000001 C 156.96516139914772 870.473832064 153.07931907420226 874.36 148.285888671875 874.36 C 143.49245826954774 874.36 139.60661594460228 870.473832064 139.60661594460228 865.6800000000001 Z"/></g><g transform="translate(-102,-54) scale(1,1)"><path fill="none" stroke="#000000" d="M 139.60661594460228 865.6800000000001 C 139.60661594460228 860.8861679360001 143.49245826954774 857 148.285888671875 857 C 153.07931907420226 857 156.96516139914772 860.8861679360001 156.96516139914772 865.6800000000001 C 156.96516139914772 870.473832064 153.07931907420226 874.36 148.285888671875 874.36 C 143.49245826954774 874.36 139.60661594460228 870.473832064 139.60661594460228 865.6800000000001 Z" stroke-miterlimit="10"/></g><g transform="translate(-102,-54) scale(1,1)"><path fill="none" stroke="#000000" d="M 148.285888671875 874.36 L 148.285888671875 891.64" stroke-miterlimit="10"/></g><g transform="translate(-102,-54) scale(1,1)"><path fill="none" stroke="#000000" d="M 139.09607049005683 880.84 L 157.47570685369317 880.84" stroke-miterlimit="10"/></g><g transform="translate(-102,-54) scale(1,1)"><path fill="none" stroke="#000000" d="M 148.285888671875 891.64 L 135.52225230823865 909" stroke-miterlimit="10"/></g><g transform="translate(-102,-54) scale(1,1)"><path fill="none" stroke="#000000" d="M 148.285888671875 891.64 L 161.04952503551135 909" stroke-miterlimit="10"/></g><g transform="translate(-102,-54) scale(1,1)"><g><path fill="none" stroke="none"/><text fill="#000000" stroke="none" font-family="Arial" font-size="13px" font-style="normal" font-weight="bold" text-decoration="none" x="116.5" y="928">Utilisateur</text></g></g><g transform="translate(-102,-54) scale(1,1)"><path fill="#ffffff" stroke="none" d="M 1952.4093503196023 857.6800000000001 C 1952.4093503196023 852.8861679360001 1956.2951926445478 849 1961.088623046875 849 C 1965.8820534492022 849 1969.7678957741477 852.8861679360001 1969.7678957741477 857.6800000000001 C 1969.7678957741477 862.473832064 1965.8820534492022 866.36 1961.088623046875 866.36 C 1956.2951926445478 866.36 1952.4093503196023 862.473832064 1952.4093503196023 857.6800000000001 Z"/></g><g transform="translate(-102,-54) scale(1,1)"><path fill="none" stroke="#000000" d="M 1952.4093503196023 857.6800000000001 C 1952.4093503196023 852.8861679360001 1956.2951926445478 849 1961.088623046875 849 C 1965.8820534492022 849 1969.7678957741477 852.8861679360001 1969.7678957741477 857.6800000000001 C 1969.7678957741477 862.473832064 1965.8820534492022 866.36 1961.088623046875 866.36 C 1956.2951926445478 866.36 1952.4093503196023 862.473832064 1952.4093503196023 857.6800000000001 Z" stroke-miterlimit="10"/></g><g transform="translate(-102,-54) scale(1,1)"><path fill="none" stroke="#000000" d="M 1961.088623046875 866.36 L 1961.088623046875 883.64" stroke-miterlimit="10"/></g><g transform="translate(-102,-54) scale(1,1)"><path fill="none" stroke="#000000" d="M 1951.8988048650567 872.84 L 1970.2784412286933 872.84" stroke-miterlimit="10"/></g><g transform="translate(-102,-54) scale(1,1)"><path fill="none" stroke="#000000" d="M 1961.088623046875 883.64 L 1948.3249866832386 901" stroke-miterlimit="10"/></g><g transform="translate(-102,-54) scale(1,1)"><path fill="none" stroke="#000000" d="M 1961.088623046875 883.64 L 1973.8522594105114 901" stroke-miterlimit="10"/></g><g transform="translate(-102,-54) scale(1,1)"><g><path fill="none" stroke="none"/><text fill="#000000" stroke="none" font-family="Arial" font-size="13px" font-style="normal" font-weight="bold" text-decoration="none" x="1941.5791015625" y="920">Steam</text></g></g><g transform="translate(-102,-54) scale(1,1)"><path fill="#C0C0C0" stroke="none" d="M 439 1143 C 439 1116.4903296 483.77152 1095 539 1095 C 594.22848 1095 639 1116.4903296 639 1143 C 639 1169.5096704 594.22848 1191 539 1191 C 483.77152 1191 439 1169.5096704 439 1143 Z" opacity="0.2"/></g><g transform="translate(-102,-54) scale(1,1)"><path fill="#ffffff" stroke="none" d="M 432 1136 C 432 1109.4903296 476.77152 1088 532 1088 C 587.22848 1088 632 1109.4903296 632 1136 C 632 1162.5096704 587.22848 1184 532 1184 C 476.77152 1184 432 1162.5096704 432 1136 Z"/></g><g transform="translate(-102,-54) scale(1,1)"><path fill="none" stroke="#000000" d="M 432 1136 C 432 1109.4903296 476.77152 1088 532 1088 C 587.22848 1088 632 1109.4903296 632 1136 C 632 1162.5096704 587.22848 1184 532 1184 C 476.77152 1184 432 1162.5096704 432 1136 Z" stroke-miterlimit="10"/></g><g transform="translate(-102,-54) scale(1,1)"><g><path fill="none" stroke="none"/><text fill="#000000" stroke="none" font-family="Arial" font-size="13px" font-style="normal" font-weight="bold" text-decoration="none" x="470.25" y="1141.5">Consulter son profil</text></g></g><g transform="translate(-102,-54) scale(1,1)"><path fill="#C0C0C0" stroke="none" d="M 919 887 C 919 860.4903296 965.5623808 839 1023 839 C 1080.4376192 839 1127 860.4903296 1127 887 C 1127 913.5096704 1080.4376192 935 1023 935 C 965.5623808 935 919 913.5096704 919 887 Z" opacity="0.2"/></g><g transform="translate(-102,-54) scale(1,1)"><path fill="#ffffff" stroke="none" d="M 912 880 C 912 853.4903296 958.5623808 832 1016 832 C 1073.4376192 832 1120 853.4903296 1120 880 C 1120 906.5096704 1073.4376192 928 1016 928 C 958.5623808 928 912 906.5096704 912 880 Z"/></g><g transform="translate(-102,-54) scale(1,1)"><path fill="none" stroke="#000000" d="M 912 880 C 912 853.4903296 958.5623808 832 1016 832 C 1073.4376192 832 1120 853.4903296 1120 880 C 1120 906.5096704 1073.4376192 928 1016 928 C 958.5623808 928 912 906.5096704 912 880 Z" stroke-miterlimit="10"/></g><g transform="translate(-102,-54) scale(1,1)"><g><path fill="none" stroke="none"/><text fill="#000000" stroke="none" font-family="Arial" font-size="13px" font-style="normal" font-weight="bold" text-decoration="none" x="982.417724609375" y="885.5">Connexion</text></g></g><g transform="translate(-102,-54) scale(1,1)"><path fill="none" stroke="#000000" d="M 633 1136 L 1016 1136 L 1016 929" stroke-miterlimit="10" stroke-dasharray="3"/></g><g transform="translate(-102,-54) scale(1,1)"><path fill="none" stroke="#000000" d="M 1020.209517756016 939.1626748576241 L 1016 929 L 1011.790482243984 939.1626748576241" stroke-miterlimit="10"/></g><g transform="translate(-102,-54) scale(1,1)"><g><path fill="none" stroke="none"/><text fill="#000000" stroke="none" font-family="Arial" font-size="13px" font-style="normal" font-weight="normal" text-decoration="none" x="926.5" y="1122">+"include"</text></g></g><g transform="translate(-102,-54) scale(1,1)"><path fill="none" stroke="#000000" d="M 1121 881 L 1935 887" stroke-miterlimit="10"/></g><g transform="translate(-102,-54) scale(1,1)"><path fill="none" stroke="#000000" d="M 186 919 L 454 1087" stroke-miterlimit="10"/></g><g transform="translate(-102,-54) scale(1,1)"><path fill="#C0C0C0" stroke="none" d="M 431 895 C 431 868.4903296 475.77152 847 531 847 C 586.22848 847 631 868.4903296 631 895 C 631 921.5096704 586.22848 943 531 943 C 475.77152 943 431 921.5096704 431 895 Z" opacity="0.2"/></g><g transform="translate(-102,-54) scale(1,1)"><path fill="#ffffff" stroke="none" d="M 424 888 C 424 861.4903296 468.77152 840 524 840 C 579.22848 840 624 861.4903296 624 888 C 624 914.5096704 579.22848 936 524 936 C 468.77152 936 424 914.5096704 424 888 Z"/></g><g transform="translate(-102,-54) scale(1,1)"><path fill="none" stroke="#000000" d="M 424 888 C 424 861.4903296 468.77152 840 524 840 C 579.22848 840 624 861.4903296 624 888 C 624 914.5096704 579.22848 936 524 936 C 468.77152 936 424 914.5096704 424 888 Z" stroke-miterlimit="10"/></g><g transform="translate(-102,-54) scale(1,1)"><g><path fill="none" stroke="none"/><text fill="#000000" stroke="none" font-family="Arial" font-size="13px" font-style="normal" font-weight="bold" text-decoration="none" x="476.681396484375" y="893.5">Ecrire une note</text></g></g><g transform="translate(-102,-54) scale(1,1)"><path fill="none" stroke="#000000" d="M 186 894 L 423 890" stroke-miterlimit="10"/></g><g transform="translate(-102,-54) scale(1,1)"><path fill="none" stroke="#000000" d="M 625 886 L 911 882" stroke-miterlimit="10" stroke-dasharray="3"/></g><g transform="translate(-102,-54) scale(1,1)"><path fill="none" stroke="#000000" d="M 900.8971875667039 886.3512275207852 L 911 882 L 900.7794503329278 877.9330153057933" stroke-miterlimit="10"/></g><g transform="translate(-102,-54) scale(1,1)"><g><path fill="none" stroke="none"/><text fill="#000000" stroke="none" font-family="Arial" font-size="13px" font-style="normal" font-weight="normal" text-decoration="none" x="694.5" y="874">+"include"</text></g></g><g transform="translate(-102,-54) scale(1,1)"><path fill="#C0C0C0" stroke="none" d="M 423 411 C 423 382.2811904 471.3532416 359 531 359 C 590.6467584 359 639 382.2811904 639 411 C 639 439.7188096 590.6467584 463 531 463 C 471.3532416 463 423 439.7188096 423 411 Z" opacity="0.2"/></g><g transform="translate(-102,-54) scale(1,1)"><path fill="#ffffff" stroke="none" d="M 416 404 C 416 375.2811904 464.3532416 352 524 352 C 583.6467584 352 632 375.2811904 632 404 C 632 432.7188096 583.6467584 456 524 456 C 464.3532416 456 416 432.7188096 416 404 Z"/></g><g transform="translate(-102,-54) scale(1,1)"><path fill="none" stroke="#000000" d="M 416 404 C 416 375.2811904 464.3532416 352 524 352 C 583.6467584 352 632 375.2811904 632 404 C 632 432.7188096 583.6467584 456 524 456 C 464.3532416 456 416 432.7188096 416 404 Z" stroke-miterlimit="10"/></g><g transform="translate(-102,-54) scale(1,1)"><g><path fill="none" stroke="none"/><text fill="#000000" stroke="none" font-family="Arial" font-size="13px" font-style="normal" font-weight="bold" text-decoration="none" x="452.12548828125" y="409.5">Consulter des données</text></g></g><g transform="translate(-102,-54) scale(1,1)"><path fill="none" stroke="#000000" d="M 179 855 L 483 457" stroke-miterlimit="10"/></g><g transform="translate(-102,-54) scale(1,1)"><path fill="none" stroke="#000000" d="M 524 839 L 524 457" stroke-miterlimit="10" stroke-dasharray="3"/></g><g transform="translate(-102,-54) scale(1,1)"><path fill="none" stroke="#000000" d="M 528.209517756016 467.16267485762415 L 524 457 L 519.790482243984 467.16267485762415" stroke-miterlimit="10"/></g><g transform="translate(-102,-54) scale(1,1)"><g><path fill="none" stroke="none"/><text fill="#000000" stroke="none" font-family="Arial" font-size="13px" font-style="normal" font-weight="normal" text-decoration="none" x="569.5" y="661">+"include"</text></g></g><g transform="translate(-102,-54) scale(1,1)"><path fill="#C0C0C0" stroke="none" d="M 919 291 C 919 257.862912 999.588736 231 1099 231 C 1198.411264 231 1279 257.862912 1279 291 C 1279 324.137088 1198.411264 351 1099 351 C 999.588736 351 919 324.137088 919 291 Z" opacity="0.2"/></g><g transform="translate(-102,-54) scale(1,1)"><path fill="#ffffff" stroke="none" d="M 912 284 C 912 250.862912 992.588736 224 1092 224 C 1191.411264 224 1272 250.862912 1272 284 C 1272 317.137088 1191.411264 344 1092 344 C 992.588736 344 912 317.137088 912 284 Z"/></g><g transform="translate(-102,-54) scale(1,1)"><path fill="none" stroke="#000000" d="M 912 284 C 912 250.862912 992.588736 224 1092 224 C 1191.411264 224 1272 250.862912 1272 284 C 1272 317.137088 1191.411264 344 1092 344 C 992.588736 344 912 317.137088 912 284 Z" stroke-miterlimit="10"/></g><g transform="translate(-102,-54) scale(1,1)"><g><path fill="none" stroke="none"/><text fill="#000000" stroke="none" font-family="Arial" font-size="13px" font-style="normal" font-weight="bold" text-decoration="none" x="986.067138671875" y="289.5">Consulter les donnees d'une arme</text></g></g><g transform="translate(-102,-54) scale(1,1)"><path fill="#C0C0C0" stroke="none" d="M 927 419 C 927 385.862912 1008.0364512 359 1108 359 C 1207.9635488 359 1289 385.862912 1289 419 C 1289 452.137088 1207.9635488 479 1108 479 C 1008.0364512 479 927 452.137088 927 419 Z" opacity="0.2"/></g><g transform="translate(-102,-54) scale(1,1)"><path fill="#ffffff" stroke="none" d="M 920 412 C 920 378.862912 1001.0364512 352 1101 352 C 1200.9635488 352 1282 378.862912 1282 412 C 1282 445.137088 1200.9635488 472 1101 472 C 1001.0364512 472 920 445.137088 920 412 Z"/></g><g transform="translate(-102,-54) scale(1,1)"><path fill="none" stroke="#000000" d="M 920 412 C 920 378.862912 1001.0364512 352 1101 352 C 1200.9635488 352 1282 378.862912 1282 412 C 1282 445.137088 1200.9635488 472 1101 472 C 1001.0364512 472 920 445.137088 920 412 Z" stroke-miterlimit="10"/></g><g transform="translate(-102,-54) scale(1,1)"><g><path fill="none" stroke="none"/><text fill="#000000" stroke="none" font-family="Arial" font-size="13px" font-style="normal" font-weight="bold" text-decoration="none" x="977.37939453125" y="417.5">Consulter les donnees d'un personnage</text></g></g><g transform="translate(-102,-54) scale(1,1)"><path fill="#C0C0C0" stroke="none" d="M 911 163 C 911 129.862912 991.588736 103 1091 103 C 1190.411264 103 1271 129.862912 1271 163 C 1271 196.137088 1190.411264 223 1091 223 C 991.588736 223 911 196.137088 911 163 Z" opacity="0.2"/></g><g transform="translate(-102,-54) scale(1,1)"><path fill="#ffffff" stroke="none" d="M 904 156 C 904 122.862912 984.588736 96 1084 96 C 1183.411264 96 1264 122.862912 1264 156 C 1264 189.137088 1183.411264 216 1084 216 C 984.588736 216 904 189.137088 904 156 Z"/></g><g transform="translate(-102,-54) scale(1,1)"><path fill="none" stroke="#000000" d="M 904 156 C 904 122.862912 984.588736 96 1084 96 C 1183.411264 96 1264 122.862912 1264 156 C 1264 189.137088 1183.411264 216 1084 216 C 984.588736 216 904 189.137088 904 156 Z" stroke-miterlimit="10"/></g><g transform="translate(-102,-54) scale(1,1)"><g><path fill="none" stroke="none"/><text fill="#000000" stroke="none" font-family="Arial" font-size="13px" font-style="normal" font-weight="bold" text-decoration="none" x="966.87939453125" y="161.5">Consulter les donnnees d'un ennemie</text></g></g><g transform="translate(-102,-54) scale(1,1)"><path fill="#C0C0C0" stroke="none" d="M 927 547 C 927 513.862912 1007.588736 487 1107 487 C 1206.411264 487 1287 513.862912 1287 547 C 1287 580.137088 1206.411264 607 1107 607 C 1007.588736 607 927 580.137088 927 547 Z" opacity="0.2"/></g><g transform="translate(-102,-54) scale(1,1)"><path fill="#ffffff" stroke="none" d="M 920 540 C 920 506.862912 1000.588736 480 1100 480 C 1199.411264 480 1280 506.862912 1280 540 C 1280 573.137088 1199.411264 600 1100 600 C 1000.588736 600 920 573.137088 920 540 Z"/></g><g transform="translate(-102,-54) scale(1,1)"><path fill="none" stroke="#000000" d="M 920 540 C 920 506.862912 1000.588736 480 1100 480 C 1199.411264 480 1280 506.862912 1280 540 C 1280 573.137088 1199.411264 600 1100 600 C 1000.588736 600 920 573.137088 920 540 Z" stroke-miterlimit="10"/></g><g transform="translate(-102,-54) scale(1,1)"><g><path fill="none" stroke="none"/><text fill="#000000" stroke="none" font-family="Arial" font-size="13px" font-style="normal" font-weight="bold" text-decoration="none" x="994.067138671875" y="545.5">Consulter les donnees d'une carte</text></g></g><g transform="translate(-102,-54) scale(1,1)"><path fill="none" stroke="#000000" d="M 903 158 L 712 160 L 712 408 L 633 406" stroke-miterlimit="10"/></g><g transform="translate(-102,-54) scale(1,1)"><path fill="#FFFFFF" stroke="none" d="M 653.5319112223842 398.0980621644982 L 633 406 L 653.105767484066 414.93073982807016"/></g><g transform="translate(-102,-54) scale(1,1)"><path fill="none" stroke="#000000" d="M 653.5319112223842 398.0980621644982 L 633 406 L 653.105767484066 414.93073982807016 L 653.5319112223842 398.0980621644982" stroke-miterlimit="10"/></g><g transform="translate(-102,-54) scale(1,1)"><path fill="none" stroke="#000000" d="M 911 282 L 712 280 L 712 408 L 633 406" stroke-miterlimit="10"/></g><g transform="translate(-102,-54) scale(1,1)"><path fill="#FFFFFF" stroke="none" d="M 653.5319112223842 398.0980621644982 L 633 406 L 653.105767484066 414.93073982807016"/></g><g transform="translate(-102,-54) scale(1,1)"><path fill="none" stroke="#000000" d="M 653.5319112223842 398.0980621644982 L 633 406 L 653.105767484066 414.93073982807016 L 653.5319112223842 398.0980621644982" stroke-miterlimit="10"/></g><g transform="translate(-102,-54) scale(1,1)"><path fill="none" stroke="#000000" d="M 919 409 L 633 406" stroke-miterlimit="10"/></g><g transform="translate(-102,-54) scale(1,1)"><path fill="#FFFFFF" stroke="none" d="M 653.412538313389 397.7946188629395 L 633 406 L 653.2359249068633 414.63176361839186"/></g><g transform="translate(-102,-54) scale(1,1)"><path fill="none" stroke="#000000" d="M 653.412538313389 397.7946188629395 L 633 406 L 653.2359249068633 414.63176361839186 L 653.412538313389 397.7946188629395" stroke-miterlimit="10"/></g><g transform="translate(-102,-54) scale(1,1)"><path fill="none" stroke="#000000" d="M 919 538 L 712 536 L 712 408 L 633 406" stroke-miterlimit="10"/></g><g transform="translate(-102,-54) scale(1,1)"><path fill="#FFFFFF" stroke="none" d="M 653.5319112223842 398.0980621644982 L 633 406 L 653.105767484066 414.93073982807016"/></g><g transform="translate(-102,-54) scale(1,1)"><path fill="none" stroke="#000000" d="M 653.5319112223842 398.0980621644982 L 633 406 L 653.105767484066 414.93073982807016 L 653.5319112223842 398.0980621644982" stroke-miterlimit="10"/></g><g transform="translate(-102,-54) scale(1,1)"><path fill="#C0C0C0" stroke="none" d="M 1439 179 C 1439 145.862912 1521.827312 119 1624 119 C 1726.172688 119 1809 145.862912 1809 179 C 1809 212.137088 1726.172688 239 1624 239 C 1521.827312 239 1439 212.137088 1439 179 Z" opacity="0.2"/></g><g transform="translate(-102,-54) scale(1,1)"><path fill="#ffffff" stroke="none" d="M 1432 172 C 1432 138.862912 1514.827312 112 1617 112 C 1719.172688 112 1802 138.862912 1802 172 C 1802 205.137088 1719.172688 232 1617 232 C 1514.827312 232 1432 205.137088 1432 172 Z"/></g><g transform="translate(-102,-54) scale(1,1)"><path fill="none" stroke="#000000" d="M 1432 172 C 1432 138.862912 1514.827312 112 1617 112 C 1719.172688 112 1802 138.862912 1802 172 C 1802 205.137088 1719.172688 232 1617 232 C 1514.827312 232 1432 205.137088 1432 172 Z" stroke-miterlimit="10"/></g><g transform="translate(-102,-54) scale(1,1)"><g><path fill="none" stroke="none"/><text fill="#000000" stroke="none" font-family="Arial" font-size="13px" font-style="normal" font-weight="bold" text-decoration="none" x="1490.830810546875" y="177.5">Consulter les donnees d'une arme active</text></g></g><g transform="translate(-102,-54) scale(1,1)"><path fill="#C0C0C0" stroke="none" d="M 1439 307 C 1439 273.862912 1525.185176 247 1631.5 247 C 1737.814824 247 1824 273.862912 1824 307 C 1824 340.137088 1737.814824 367 1631.5 367 C 1525.185176 367 1439 340.137088 1439 307 Z" opacity="0.2"/></g><g transform="translate(-102,-54) scale(1,1)"><path fill="#ffffff" stroke="none" d="M 1432 300 C 1432 266.862912 1518.185176 240 1624.5 240 C 1730.814824 240 1817 266.862912 1817 300 C 1817 333.137088 1730.814824 360 1624.5 360 C 1518.185176 360 1432 333.137088 1432 300 Z"/></g><g transform="translate(-102,-54) scale(1,1)"><path fill="none" stroke="#000000" d="M 1432 300 C 1432 266.862912 1518.185176 240 1624.5 240 C 1730.814824 240 1817 266.862912 1817 300 C 1817 333.137088 1730.814824 360 1624.5 360 C 1518.185176 360 1432 333.137088 1432 300 Z" stroke-miterlimit="10"/></g><g transform="translate(-102,-54) scale(1,1)"><g><path fill="none" stroke="none"/><text fill="#000000" stroke="none" font-family="Arial" font-size="13px" font-style="normal" font-weight="bold" text-decoration="none" x="1492.909912109375" y="305.5">Consulter les donnees d'une arme passive</text></g></g><g transform="translate(-102,-54) scale(1,1)"><path fill="#C0C0C0" stroke="none" d="M 1447 435 C 1447 401.862912 1531.6181728 375 1636 375 C 1740.3818272 375 1825 401.862912 1825 435 C 1825 468.137088 1740.3818272 495 1636 495 C 1531.6181728 495 1447 468.137088 1447 435 Z" opacity="0.2"/></g><g transform="translate(-102,-54) scale(1,1)"><path fill="#ffffff" stroke="none" d="M 1440 428 C 1440 394.862912 1524.6181728 368 1629 368 C 1733.3818272 368 1818 394.862912 1818 428 C 1818 461.137088 1733.3818272 488 1629 488 C 1524.6181728 488 1440 461.137088 1440 428 Z"/></g><g transform="translate(-102,-54) scale(1,1)"><path fill="none" stroke="#000000" d="M 1440 428 C 1440 394.862912 1524.6181728 368 1629 368 C 1733.3818272 368 1818 394.862912 1818 428 C 1818 461.137088 1733.3818272 488 1629 488 C 1524.6181728 488 1440 461.137088 1440 428 Z" stroke-miterlimit="10"/></g><g transform="translate(-102,-54) scale(1,1)"><g><path fill="none" stroke="none"/><text fill="#000000" stroke="none" font-family="Arial" font-size="13px" font-style="normal" font-weight="bold" text-decoration="none" x="1499.95849609375" y="433.5">Consulter les donnees d'une amelioration</text></g></g><g transform="translate(-102,-54) scale(1,1)"><path fill="none" stroke="#000000" d="M 1431 169 L 1392 168 L 1392 288 L 1273 286" stroke-miterlimit="10" stroke-dasharray="3"/></g><g transform="translate(-102,-54) scale(1,1)"><path fill="none" stroke="#000000" d="M 1283.2319780646499 281.9618537811857 L 1273 286 L 1283.0905016492122 290.37970049971955" stroke-miterlimit="10"/></g><g transform="translate(-102,-54) scale(1,1)"><path fill="none" stroke="#000000" d="M 1431 290 L 1392 288 L 1273 286" stroke-miterlimit="10" stroke-dasharray="3"/></g><g transform="translate(-102,-54) scale(1,1)"><path fill="none" stroke="#000000" d="M 1283.2319780646499 281.9618537811857 L 1273 286 L 1283.0905016492122 290.37970049971955" stroke-miterlimit="10"/></g><g transform="translate(-102,-54) scale(1,1)"><path fill="none" stroke="#000000" d="M 1439 425 L 1392 424 L 1392 288 L 1273 286" stroke-miterlimit="10" stroke-dasharray="3"/></g><g transform="translate(-102,-54) scale(1,1)"><path fill="none" stroke="#000000" d="M 1283.2319780646499 281.9618537811857 L 1273 286 L 1283.0905016492122 290.37970049971955" stroke-miterlimit="10"/></g><g transform="translate(-102,-54) scale(1,1)"><g><path fill="none" stroke="none"/><text fill="#000000" stroke="none" font-family="Arial" font-size="13px" font-style="normal" font-weight="normal" text-decoration="none" x="1301.5" y="315">+"include"</text></g></g><g transform="translate(-102,-54) scale(1,1)"><path fill="#C0C0C0" stroke="none" d="M 679 1015 C 679 988.4903296 723.77152 967 779 967 C 834.22848 967 879 988.4903296 879 1015 C 879 1041.5096704 834.22848 1063 779 1063 C 723.77152 1063 679 1041.5096704 679 1015 Z" opacity="0.2"/></g><g transform="translate(-102,-54) scale(1,1)"><path fill="#ffffff" stroke="none" d="M 672 1008 C 672 981.4903296 716.77152 960 772 960 C 827.22848 960 872 981.4903296 872 1008 C 872 1034.5096704 827.22848 1056 772 1056 C 716.77152 1056 672 1034.5096704 672 1008 Z"/></g><g transform="translate(-102,-54) scale(1,1)"><path fill="none" stroke="#000000" d="M 672 1008 C 672 981.4903296 716.77152 960 772 960 C 827.22848 960 872 981.4903296 872 1008 C 872 1034.5096704 827.22848 1056 772 1056 C 716.77152 1056 672 1034.5096704 672 1008 Z" stroke-miterlimit="10"/></g><g transform="translate(-102,-54) scale(1,1)"><g><path fill="none" stroke="none"/><text fill="#000000" stroke="none" font-family="Arial" font-size="13px" font-style="normal" font-weight="bold" text-decoration="none" x="709.872314453125" y="1013.5">Consulter ses notes</text></g></g><g transform="translate(-102,-54) scale(1,1)"><path fill="none" stroke="#000000" d="M 671 1008 L 648 1008 L 576 1087" stroke-miterlimit="10" stroke-dasharray="3"/></g><g transform="translate(-102,-54) scale(1,1)"><path fill="none" stroke="#000000" d="M 579.7343898767909 1076.653293652175 L 576 1087 L 585.9568386269661 1082.3243861839803" stroke-miterlimit="10"/></g><g transform="translate(-102,-54) scale(1,1)"><g><path fill="none" stroke="none"/><text fill="#000000" stroke="none" font-family="Arial" font-size="13px" font-style="normal" font-weight="normal" text-decoration="none" x="614.5" y="1075">+"include"</text></g></g><g transform="translate(-102,-54) scale(1,1)"><path fill="none" stroke="#000000" d="M 671 1008 L 648 1008 L 575 937" stroke-miterlimit="10" stroke-dasharray="3"/></g><g transform="translate(-102,-54) scale(1,1)"><path fill="none" stroke="#000000" d="M 585.2201546893178 941.0679771541168 L 575 937 L 579.3502464542042 947.10323491698" stroke-miterlimit="10"/></g><g transform="translate(-102,-54) scale(1,1)"><g><path fill="none" stroke="none"/><text fill="#000000" stroke="none" font-family="Arial" font-size="13px" font-style="normal" font-weight="normal" text-decoration="none" x="607.5" y="962">+"extand"</text></g></g><g transform="translate(-102,-54) scale(1,1)"><path fill="#C0C0C0" stroke="none" d="M 735 1247 C 735 1220.4903296 791.1882576 1199 860.5 1199 C 929.8117424 1199 986 1220.4903296 986 1247 C 986 1273.5096704 929.8117424 1295 860.5 1295 C 791.1882576 1295 735 1273.5096704 735 1247 Z" opacity="0.2"/></g><g transform="translate(-102,-54) scale(1,1)"><path fill="#ffffff" stroke="none" d="M 728 1240 C 728 1213.4903296 784.1882576 1192 853.5 1192 C 922.8117424 1192 979 1213.4903296 979 1240 C 979 1266.5096704 922.8117424 1288 853.5 1288 C 784.1882576 1288 728 1266.5096704 728 1240 Z"/></g><g transform="translate(-102,-54) scale(1,1)"><path fill="none" stroke="#000000" d="M 728 1240 C 728 1213.4903296 784.1882576 1192 853.5 1192 C 922.8117424 1192 979 1213.4903296 979 1240 C 979 1266.5096704 922.8117424 1288 853.5 1288 C 784.1882576 1288 728 1266.5096704 728 1240 Z" stroke-miterlimit="10"/></g><g transform="translate(-102,-54) scale(1,1)"><g><path fill="none" stroke="none"/><text fill="#000000" stroke="none" font-family="Arial" font-size="13px" font-style="normal" font-weight="bold" text-decoration="none" x="769.345947265625" y="1245.5">Consulter ses informations</text></g></g><g transform="translate(-102,-54) scale(1,1)"><path fill="#C0C0C0" stroke="none" d="M 735 1367 C 735 1340.4903296 790.5166848 1319 859 1319 C 927.4833152 1319 983 1340.4903296 983 1367 C 983 1393.5096704 927.4833152 1415 859 1415 C 790.5166848 1415 735 1393.5096704 735 1367 Z" opacity="0.2"/></g><g transform="translate(-102,-54) scale(1,1)"><path fill="#ffffff" stroke="none" d="M 728 1360 C 728 1333.4903296 783.5166848 1312 852 1312 C 920.4833152 1312 976 1333.4903296 976 1360 C 976 1386.5096704 920.4833152 1408 852 1408 C 783.5166848 1408 728 1386.5096704 728 1360 Z"/></g><g transform="translate(-102,-54) scale(1,1)"><path fill="none" stroke="#000000" d="M 728 1360 C 728 1333.4903296 783.5166848 1312 852 1312 C 920.4833152 1312 976 1333.4903296 976 1360 C 976 1386.5096704 920.4833152 1408 852 1408 C 783.5166848 1408 728 1386.5096704 728 1360 Z" stroke-miterlimit="10"/></g><g transform="translate(-102,-54) scale(1,1)"><g><path fill="none" stroke="none"/><text fill="#000000" stroke="none" font-family="Arial" font-size="13px" font-style="normal" font-weight="bold" text-decoration="none" x="785.162353515625" y="1365.5">Consulter ses succes</text></g></g><g transform="translate(-102,-54) scale(1,1)"><path fill="none" stroke="#000000" d="M 727 1240 L 536 1240 L 534 1185" stroke-miterlimit="10" stroke-dasharray="3"/></g><g transform="translate(-102,-54) scale(1,1)"><path fill="none" stroke="#000000" d="M 538.5760450841667 1195.002990122342 L 534 1185 L 530.1625703623795 1195.3089346576799" stroke-miterlimit="10"/></g><g transform="translate(-102,-54) scale(1,1)"><path fill="none" stroke="#000000" d="M 727 1360 L 536 1360 L 533 1185" stroke-miterlimit="10" stroke-dasharray="3"/></g><g transform="translate(-102,-54) scale(1,1)"><path fill="none" stroke="#000000" d="M 537.3830910405698 1195.089029335376 L 533 1185 L 528.9652923387106 1195.2333344559793" stroke-miterlimit="10"/></g><g transform="translate(-102,-54) scale(1,1)"><g><path fill="none" stroke="none"/><text fill="#000000" stroke="none" font-family="Arial" font-size="13px" font-style="normal" font-weight="normal" text-decoration="none" x="465.5" y="1274">+"include"</text></g></g></g></svg>